<svg width="256" height="256" xmlns="http://www.w3.org/2000/svg" xmlns:xlink="http://www.w3.org/1999/xlink" xml:space="preserve" overflow="hidden"><g transform="translate(-255 -368)"><path d="M414.88 564.36C413.64 564.36 412.36 564.02 411.09 563.35L385.16 549.72C384.8 549.53 384.03 549.32 383.01 549.32 381.99 549.32 381.21 549.54 380.86 549.72L354.93 563.35C351.75 565.03 348.37 564.52 346.42 562.21 345.12 560.67 344.63 558.52 345.03 556.16L349.98 527.29C350.17 526.15 349.48 524 348.65 523.19L327.67 502.74C325.51 500.64 324.72 498.04 325.51 495.61 326.3 493.18 328.46 491.54 331.45 491.11L360.44 486.9C361.59 486.73 363.41 485.41 363.93 484.37L376.9 458.1C378.23 455.4 380.46 453.85 383.01 453.85 385.56 453.85 387.79 455.4 389.13 458.1L402.1 484.37C402.61 485.41 404.44 486.73 405.59 486.9L434.58 491.11C437.56 491.54 439.73 493.18 440.52 495.61 441.31 498.04 440.52 500.64 438.36 502.74L417.38 523.19C416.55 524 415.85 526.14 416.05 527.29L421 556.16C421.41 558.52 420.91 560.67 419.61 562.21 418.44 563.59 416.77 564.36 414.9 564.36ZM383 540.39 383 540.39C385.31 540.39 387.55 540.9 389.31 541.82L411.47 553.47 407.24 528.8C406.54 524.73 408.18 519.69 411.14 516.81L429.06 499.34 404.29 495.74C400.21 495.15 395.91 492.03 394.09 488.33L383.01 465.88 371.93 488.33C370.1 492.03 365.81 495.15 361.73 495.74L336.96 499.34 354.88 516.82C357.84 519.7 359.48 524.74 358.78 528.81L354.55 553.48 376.71 541.83C378.46 540.91 380.7 540.4 383.02 540.4Z" fill="#45636E"/><path d="M494.54 596.59 271.46 596.59C269 596.59 267 594.59 267 592.13L267 426.08C267 423.62 269 421.62 271.46 421.62L494.54 421.62C497 421.62 499 423.62 499 426.08L499 592.13C499 594.59 497 596.59 494.54 596.59ZM275.92 587.67 490.08 587.67 490.08 430.54 275.92 430.54 275.92 587.67Z" fill="#45636E"/><path d="M494.54 430.54 271.46 430.54C269 430.54 267 428.54 267 426.08L267 399.87C267 397.41 269 395.41 271.46 395.41L494.54 395.41C497 395.41 499 397.41 499 399.87L499 426.07C499 428.53 497 430.53 494.54 430.53ZM275.92 421.61 490.08 421.61 490.08 404.33 275.92 404.33 275.92 421.61Z" fill="#45636E"/><path d="M288.73 417.44 286.14 417.44C283.68 417.44 281.68 415.44 281.68 412.98 281.68 410.52 283.68 408.52 286.14 408.52L288.73 408.52C291.19 408.52 293.19 410.52 293.19 412.98 293.19 415.44 291.19 417.44 288.73 417.44Z" fill="#45636E"/><path d="M304.83 417.44 302.24 417.44C299.78 417.44 297.78 415.44 297.78 412.98 297.78 410.52 299.78 408.52 302.24 408.52L304.83 408.52C307.29 408.52 309.29 410.52 309.29 412.98 309.29 415.44 307.29 417.44 304.83 417.44Z" fill="#45636E"/><path d="M320.94 417.44 318.35 417.44C315.89 417.44 313.89 415.44 313.89 412.98 313.89 410.52 315.89 408.52 318.35 408.52L320.94 408.52C323.4 408.52 325.4 410.52 325.4 412.98 325.4 415.44 323.4 417.44 320.94 417.44Z" fill="#45636E"/></g></svg>