<svg width="256" height="256" xmlns="http://www.w3.org/2000/svg" xmlns:xlink="http://www.w3.org/1999/xlink" xml:space="preserve" overflow="hidden"><g transform="translate(-206 -384)"><path d="M445 412.678 223 412.678C220.239 412.678 218 410.439 218 407.678L218 407.19C218 404.429 220.239 402.19 223 402.19L445 402.19C447.761 402.19 450 404.429 450 407.19L450 407.678C450 410.439 447.761 412.678 445 412.678Z"/><path d="M328.727 548.62 328.727 571.219C328.727 571.747 328.465 572.241 328.027 572.536L268.304 612.845C267.577 613.336 267.385 614.324 267.876 615.051L271.965 621.11C272.456 621.837 273.444 622.029 274.171 621.538L333.111 581.758C333.648 581.395 334.352 581.395 334.889 581.758L393.829 621.538C394.556 622.029 395.544 621.837 396.035 621.11L400.124 615.051C400.615 614.324 400.423 613.336 399.696 612.845L339.914 572.497C339.476 572.202 339.214 571.708 339.214 571.18L339.214 548.62C339.214 547.742 338.503 547.031 337.625 547.031L330.315 547.031C329.438 547.031 328.727 547.742 328.727 548.62Z"/><path d="M396.187 519.102 268.944 519.102C268.066 519.102 267.355 518.391 267.355 517.513L267.355 445.96C267.355 445.082 268.066 444.371 268.944 444.371L272.758 444.371C273.636 444.371 274.347 445.082 274.347 445.96L274.347 510.521C274.347 511.399 275.058 512.11 275.936 512.11L396.187 512.11C397.065 512.11 397.776 512.821 397.776 513.699L397.776 517.513C397.776 518.39 397.065 519.102 396.187 519.102Z"/><path d="M285.861 502.968 283.164 500.271C282.543 499.65 282.543 498.644 283.164 498.024L299.117 482.071C299.738 481.45 300.744 481.45 301.364 482.071L309.038 489.744C309.659 490.365 310.665 490.365 311.285 489.744L331.059 469.971C331.68 469.35 332.686 469.35 333.306 469.971L350.737 487.402C351.358 488.023 352.364 488.023 352.984 487.402L385.166 455.22C385.787 454.599 386.793 454.599 387.413 455.22L390.11 457.917C390.731 458.538 390.731 459.544 390.11 460.164L352.984 497.29C352.363 497.911 351.357 497.911 350.737 497.29L333.306 479.859C332.685 479.238 331.679 479.238 331.059 479.859L311.285 499.632C310.664 500.253 309.658 500.253 309.038 499.632L301.364 491.959C300.743 491.338 299.737 491.338 299.117 491.959L288.108 502.968C287.488 503.588 286.481 503.588 285.861 502.968Z"/><path d="M438.613 541.043 229.387 541.043C227.679 541.043 226.294 539.658 226.294 537.95L226.294 422.548C226.294 420.84 227.679 419.455 229.387 419.455L438.614 419.455C440.322 419.455 441.707 420.84 441.707 422.548L441.707 537.949C441.707 539.658 440.322 541.043 438.613 541.043ZM236.192 534.237 431.808 534.237C433.516 534.237 434.901 532.852 434.901 531.144L434.901 429.353C434.901 427.645 433.516 426.26 431.808 426.26L236.192 426.26C234.484 426.26 233.099 427.645 233.099 429.353L233.099 531.144C233.099 532.852 234.484 534.237 236.192 534.237Z"/></g></svg>